<svg version="1.1" xmlns="http://www.w3.org/2000/svg" viewBox="0 0 952.65625 800.7734375" width="1905.3125" height="1601.546875">
  <!-- svg-source:excalidraw -->
  
  <defs>
    <style class="style-fonts">
      @font-face {
        font-family: "Virgil";
        src: url("https://excalidraw.com/Virgil.woff2");
      }
      @font-face {
        font-family: "Cascadia";
        src: url("https://excalidraw.com/Cascadia.woff2");
      }
    </style>
  </defs>
  <rect x="0" y="0" width="952.65625" height="800.7734375" fill="#ffffff"></rect><g stroke-linecap="round" transform="translate(43.4609375 173.2578125) rotate(0 100.24609375 66.171875)"><path d="M32 0 M32 0 C86.52 0.04, 139.46 -0.14, 168.49 0 M32 0 C61.35 1.32, 90.61 0.58, 168.49 0 M168.49 0 C189.24 -1.99, 200.07 10.28, 200.49 32 M168.49 0 C188.37 1.57, 199.87 11.22, 200.49 32 M200.49 32 C198.98 59.88, 199.85 86.58, 200.49 100.34 M200.49 32 C200.27 56.32, 200.03 80.64, 200.49 100.34 M200.49 100.34 C201.94 122.41, 189.22 131.04, 168.49 132.34 M200.49 100.34 C200.89 122.49, 187.55 131.05, 168.49 132.34 M168.49 132.34 C130.11 134.31, 94.02 131.45, 32 132.34 M168.49 132.34 C120.06 131.94, 70.58 131.3, 32 132.34 M32 132.34 C10.79 133.13, 0.01 121.92, 0 100.34 M32 132.34 C12.18 131.51, 1 122.69, 0 100.34 M0 100.34 C-1.38 78.81, 0.06 51.65, 0 32 M0 100.34 C0.05 84.13, -0.89 70.64, 0 32 M0 32 C-0.02 8.72, 10.78 0.01, 32 0 M0 32 C-1.79 11.48, 9.44 -2.28, 32 0" stroke="#000000" stroke-width="1" fill="none"></path></g><g transform="translate(62.20703125 214.4296875) rotate(0 81.5 25)"><text x="81.5" y="18" font-family="Virgil, Segoe UI Emoji" font-size="20px" fill="#000000" text-anchor="middle" style="white-space: pre;" direction="ltr">PoolConfigurator</text><text x="81.5" y="43" font-family="Virgil, Segoe UI Emoji" font-size="20px" fill="#000000" text-anchor="middle" style="white-space: pre;" direction="ltr">Aave v3 pool</text></g><g stroke-linecap="round" transform="translate(10 409.4296875) rotate(0 128 66.5)"><path d="M32 0 M32 0 C89.23 3.42, 146.83 1.62, 224 0 M32 0 C84.34 1.89, 136.76 2.53, 224 0 M224 0 C246.29 -1.61, 256.36 10.99, 256 32 M224 0 C243.44 0.99, 254.15 8.77, 256 32 M256 32 C256.71 59.15, 257.47 82.63, 256 101 M256 32 C255.67 48.13, 254.99 66.51, 256 101 M256 101 C256.87 124.18, 247.08 134.12, 224 133 M256 101 C254.7 121.5, 243.96 134.8, 224 133 M224 133 C150.34 135.33, 78.42 131.87, 32 133 M224 133 C181.51 135.3, 138.99 134.35, 32 133 M32 133 C10.15 131.12, -0.12 122.33, 0 101 M32 133 C11.3 133.78, -0.93 122.63, 0 101 M0 101 C-0.13 84.79, -0.94 67.04, 0 32 M0 101 C-0.02 81.24, -0.15 61.44, 0 32 M0 32 C1.97 11.15, 8.74 -1.9, 32 0 M0 32 C0.96 8.43, 9.64 -0.78, 32 0" stroke="#000000" stroke-width="1" fill="none"></path></g><g transform="translate(43.5 463.4296875) rotate(0 94.5 12.5)"><text x="94.5" y="18" font-family="Virgil, Segoe UI Emoji" font-size="20px" fill="#000000" text-anchor="middle" style="white-space: pre;" direction="ltr">AaveV3ConfigEngine</text></g><g stroke-linecap="round" transform="translate(119.99609375 657.7734375) rotate(0 128 66.5)"><path d="M32 0 M32 0 C94.97 -0.92, 157.74 -0.15, 224 0 M32 0 C99.24 -0.33, 167.84 -0.02, 224 0 M224 0 C246.97 -0.69, 255.88 12.03, 256 32 M224 0 C244.7 0.54, 256.48 11.1, 256 32 M256 32 C257.1 54.69, 256.02 75.11, 256 101 M256 32 C257.2 54.18, 255.48 75.5, 256 101 M256 101 C254.14 120.41, 243.6 133.12, 224 133 M256 101 C256.29 120.77, 244.5 133.27, 224 133 M224 133 C165.18 132.56, 108.87 131.36, 32 133 M224 133 C172.54 133.83, 120.72 134.13, 32 133 M32 133 C10.64 131.73, -0.33 122.73, 0 101 M32 133 C10.79 134.82, -0.44 122.05, 0 101 M0 101 C-0.24 74.26, 0.03 45.58, 0 32 M0 101 C0.18 73.65, -0.89 46.23, 0 32 M0 32 C0.2 11.3, 9.92 1.45, 32 0 M0 32 C0.37 11.16, 11.68 2.23, 32 0" stroke="#000000" stroke-width="1" fill="none"></path></g><g transform="translate(136.99609375 699.2734375) rotate(0 111 25)"><text x="111" y="18" font-family="Virgil, Segoe UI Emoji" font-size="20px" fill="#000000" text-anchor="middle" style="white-space: pre;" direction="ltr">Entity with permissions</text><text x="111" y="43" font-family="Virgil, Segoe UI Emoji" font-size="20px" fill="#000000" text-anchor="middle" style="white-space: pre;" direction="ltr">(e.g. Level 1 Executor)</text></g><g stroke-linecap="round" transform="translate(510.48828125 422.93359375) rotate(0 128 66.5)"><path d="M32 0 M32 0 C91.98 0.17, 154.16 0.13, 224 0 M32 0 C95.4 1.47, 156.65 0.46, 224 0 M224 0 C244.45 1.93, 254.48 9.92, 256 32 M224 0 C243.7 1.5, 254.12 9.43, 256 32 M256 32 C255.28 44.38, 254.99 62.34, 256 101 M256 32 C256.75 52.14, 256.68 74.67, 256 101 M256 101 C257.87 123.66, 244.1 131.7, 224 133 M256 101 C256.61 120.7, 246.79 131.49, 224 133 M224 133 C164.09 130.54, 99.96 131.44, 32 133 M224 133 C148.83 131.98, 72.44 131.32, 32 133 M32 133 C12.01 134.78, 1.3 123.3, 0 101 M32 133 C11.43 133.07, 0.74 121.96, 0 101 M0 101 C1.64 81.88, 0.68 59.79, 0 32 M0 101 C-0.95 76.34, -0.16 51.6, 0 32 M0 32 C1.21 8.73, 10.58 0.69, 32 0 M0 32 C-1.24 10.97, 9.03 0.3, 32 0" stroke="#000000" stroke-width="1" fill="none"></path></g><g transform="translate(528.48828125 464.43359375) rotate(0 110 25)"><text x="110" y="18" font-family="Virgil, Segoe UI Emoji" font-size="20px" fill="#000000" text-anchor="middle" style="white-space: pre;" direction="ltr">PayloadToListAssetA</text><text x="110" y="43" font-family="Virgil, Segoe UI Emoji" font-size="20px" fill="#000000" text-anchor="middle" style="white-space: pre;" direction="ltr">(e.g. Aave v3 Polygon)</text></g><g stroke-linecap="round" transform="translate(507.87109375 10) rotate(0 128 66.5)"><path d="M32 0 M32 0 C96.67 3.26, 159.45 0.5, 224 0 M32 0 C83.04 2.41, 135.73 1.89, 224 0 M224 0 C244.15 -0.12, 257.05 11.72, 256 32 M224 0 C244.12 -0.4, 257.13 11.11, 256 32 M256 32 C258.39 51.82, 255.51 73.4, 256 101 M256 32 C257.64 47.97, 256.14 66.24, 256 101 M256 101 C254.45 123.84, 243.87 133.1, 224 133 M256 101 C258.25 121.77, 245.4 132.53, 224 133 M224 133 C158.48 135.17, 91.83 134.05, 32 133 M224 133 C173.52 134.05, 122.9 133.79, 32 133 M32 133 C8.91 134.47, -1.41 121.11, 0 101 M32 133 C12.44 131.5, 1.53 122.52, 0 101 M0 101 C-1.34 78.9, 0.3 53.33, 0 32 M0 101 C1.14 77.41, -0.55 52.86, 0 32 M0 32 C-0.16 11.38, 9.36 0.16, 32 0 M0 32 C-1.08 8.8, 8.44 1.63, 32 0" stroke="#000000" stroke-width="1" fill="none"></path></g><g transform="translate(535.37109375 64) rotate(0 100.5 12.5)"><text x="100.5" y="18" font-family="Virgil, Segoe UI Emoji" font-size="20px" fill="#000000" text-anchor="middle" style="white-space: pre;" direction="ltr">AaveV3Payload</text></g><g stroke-linecap="round" transform="translate(355.70703125 197.421875) rotate(0 128 66.5)"><path d="M32 0 M32 0 C90.29 0.3, 149.14 1.75, 224 0 M32 0 C90.64 -0.4, 148.95 0.85, 224 0 M224 0 C244.85 0.89, 255.02 12.47, 256 32 M224 0 C247.47 0.11, 255.14 12.66, 256 32 M256 32 C257.06 49.95, 254.22 67.85, 256 101 M256 32 C257.01 56.3, 256.14 79.98, 256 101 M256 101 C256.46 122.04, 246.71 131.36, 224 133 M256 101 C255.47 121.81, 246.54 133.4, 224 133 M224 133 C160.34 134.65, 96.56 135.09, 32 133 M224 133 C152.36 133.24, 80.41 133.2, 32 133 M32 133 C11.08 133.64, 1.89 123.91, 0 101 M32 133 C8.53 133.67, -2.13 124.46, 0 101 M0 101 C-0.74 81.84, 2.34 64.13, 0 32 M0 101 C-0.85 72.71, 0.27 46.64, 0 32 M0 32 C1.27 11.04, 8.98 -1.73, 32 0 M0 32 C-0.81 10.83, 10.74 1.5, 32 0" stroke="#000000" stroke-width="1" fill="none"></path></g><g transform="translate(363.70703125 251.421875) rotate(0 120 12.5)"><text x="120" y="18" font-family="Virgil, Segoe UI Emoji" font-size="20px" fill="#000000" text-anchor="middle" style="white-space: pre;" direction="ltr">AaveV3PayloadEthereum</text></g><g stroke-linecap="round" transform="translate(686.65625 196.703125) rotate(0 128 66.5)"><path d="M32 0 M32 0 C107.52 2.39, 182.44 2.28, 224 0 M32 0 C73.51 0.71, 115.53 1.23, 224 0 M224 0 C243.81 -0.49, 257.73 11.7, 256 32 M224 0 C243.65 0.01, 257.97 10.02, 256 32 M256 32 C254.27 56.25, 255.16 82.55, 256 101 M256 32 C254.79 48.8, 256.1 67.39, 256 101 M256 101 C254.29 120.97, 244.5 132.28, 224 133 M256 101 C254.13 122.96, 245.17 133.34, 224 133 M224 133 C159.04 131.52, 88.88 133.19, 32 133 M224 133 C175.4 134.56, 126.95 133.33, 32 133 M32 133 C9.01 133.34, 1.28 123.34, 0 101 M32 133 C12.6 134.24, -1.56 123.8, 0 101 M0 101 C0.5 78.47, -0.25 57.14, 0 32 M0 101 C1 80.97, 0.32 59.47, 0 32 M0 32 C1.95 12.44, 12.15 -0.79, 32 0 M0 32 C0.02 8.9, 10.39 -0.99, 32 0" stroke="#000000" stroke-width="1" fill="none"></path></g><g transform="translate(704.65625 250.703125) rotate(0 110 12.5)"><text x="110" y="18" font-family="Virgil, Segoe UI Emoji" font-size="20px" fill="#000000" text-anchor="middle" style="white-space: pre;" direction="ltr">AaveV3PayloadPolygon</text></g><g mask="url(#mask-JoeovzefE0QvcGeTXv-Aj)" stroke-linecap="round"><g transform="translate(133.23342270081093 402.0859375) rotate(0 1.1634233550150839 -42.14764831204434)"><path d="M0.65 -0.37 C1.2 -14.01, 2.27 -68.34, 2.8 -81.97 M-0.47 -1.61 C-0.06 -15.61, 1.03 -70.73, 1.69 -83.92" stroke="#000000" stroke-width="1" fill="none"></path></g><g transform="translate(133.23342270081093 402.0859375) rotate(0 1.1634233550150839 -42.14764831204434)"><path d="M10.41 -55.94 C9.2 -61.54, 6.46 -71.66, 1.68 -83.17 M12 -54.7 C8.64 -62.12, 7.75 -66.84, 1.99 -83.1" stroke="#000000" stroke-width="1" fill="none"></path></g><g transform="translate(133.23342270081093 402.0859375) rotate(0 1.1634233550150839 -42.14764831204434)"><path d="M-10.1 -56.6 C-6.01 -62.14, -3.46 -72.09, 1.68 -83.17 M-8.51 -55.36 C-7.65 -62.79, -4.31 -67.38, 1.99 -83.1" stroke="#000000" stroke-width="1" fill="none"></path></g></g><mask id="mask-JoeovzefE0QvcGeTXv-Aj"><rect x="0" y="0" fill="#fff" width="236.34611567199045" height="584.38671875"></rect><rect x="108.78976918640069" y="348.435546875" fill="#000" width="52" height="25" opacity="1"></rect></mask><g transform="translate(108.78976918640069 348.435546875) rotate(0 25.607076869425327 11.502742312955661)"><text x="26" y="18" font-family="Virgil, Segoe UI Emoji" font-size="20px" fill="#000000" text-anchor="middle" style="white-space: pre;" direction="ltr">CALL</text></g><g mask="url(#mask-fPjnaGjL9LlakfsSBsdW2)" stroke-linecap="round"><g transform="translate(379.4004712937161 655.3418392180298) rotate(0 62.39792117406569 -49.609676270967555)"><path d="M1.06 0.52 C21.65 -16.3, 104.3 -83.1, 124.64 -99.74 M0.15 -0.25 C20.53 -16.44, 103.06 -82.36, 123.94 -98.7" stroke="#000000" stroke-width="1" fill="none"></path></g><g transform="translate(379.4004712937161 655.3418392180298) rotate(0 62.39792117406569 -49.609676270967555)"><path d="M109.08 -72.38 C112.54 -85.08, 119.4 -94.5, 124.01 -98.12 M107.7 -72.73 C111.59 -80.23, 117 -86.28, 124.35 -98.86" stroke="#000000" stroke-width="1" fill="none"></path></g><g transform="translate(379.4004712937161 655.3418392180298) rotate(0 62.39792117406569 -49.609676270967555)"><path d="M96.34 -88.47 C104.95 -94.98, 116.79 -98.11, 124.01 -98.12 M94.97 -88.82 C101.96 -92.19, 110.55 -94.22, 124.35 -98.86" stroke="#000000" stroke-width="1" fill="none"></path></g></g><mask id="mask-fPjnaGjL9LlakfsSBsdW2"><rect x="0" y="0" fill="#fff" width="603.5778428101013" height="854.1379190072031"></rect><rect x="358.9891570519086" y="593.4437993234432" fill="#000" width="165" height="25" opacity="1"></rect></mask><g transform="translate(358.9891570519087 593.4437993234432) rotate(0 82.8092354158731 12.288363623619091)"><text x="82.5" y="18" font-family="Virgil, Segoe UI Emoji" font-size="20px" fill="#000000" text-anchor="middle" style="white-space: pre;" direction="ltr">DELEGATECALL</text></g><g mask="url(#mask-RQ6NDbbHVSLc8j2nhLqfy)" stroke-linecap="round"><g transform="translate(496.013671875 475.75795302431095) rotate(0 -114.40112675521056 1.3213683271782486)"><path d="M1.04 -1.08 C-37.04 -0.57, -190.5 1.94, -228.82 2.55 M0.12 0.97 C-38.1 1.66, -191.53 3.3, -229.84 3.72" stroke="#000000" stroke-width="1" fill="none"></path></g><g transform="translate(496.013671875 475.75795302431095) rotate(0 -114.40112675521056 1.3213683271782486)"><path d="M-203.56 -7.06 C-210.58 -4.06, -218.19 0, -229.25 3.89 M-202.08 -6.37 C-208.89 -3.17, -216.1 -0.78, -228.84 4.48" stroke="#000000" stroke-width="1" fill="none"></path></g><g transform="translate(496.013671875 475.75795302431095) rotate(0 -114.40112675521056 1.3213683271782486)"><path d="M-203.34 13.46 C-210.33 10.89, -218.01 9.37, -229.25 3.89 M-201.85 14.15 C-208.71 12.22, -215.97 9.47, -228.84 4.48" stroke="#000000" stroke-width="1" fill="none"></path></g></g><mask id="mask-RQ6NDbbHVSLc8j2nhLqfy"><rect x="0" y="0" fill="#fff" width="824.708984375" height="578.9902037176121"></rect><rect x="299.166015625" y="464.87407837096146" fill="#000" width="165" height="25" opacity="1"></rect></mask><g transform="translate(299.166015625 464.8740783709615) rotate(0 82.44652949478944 12.205242980527686)"><text x="82.5" y="18" font-family="Virgil, Segoe UI Emoji" font-size="20px" fill="#000000" text-anchor="middle" style="white-space: pre;" direction="ltr">DELEGATECALL</text></g><g stroke-linecap="round"><g transform="translate(559.8163958673488 144.00000000000003) rotate(0 0.18162124970882587 23.219501137733445)"><path d="M1.12 -1.13 C0.93 6.67, -0.41 39.81, -0.75 47.57" stroke="#000000" stroke-width="1.5" fill="none" stroke-dasharray="8 9"></path></g><g transform="translate(559.8163958673488 144.00000000000003) rotate(0 0.18162124970882587 23.219501137733445)"><path d="M-9.7 27.25 C-3.73 34.2, -4.95 38.32, -1.57 45.96" stroke="#000000" stroke-width="1.5" fill="none"></path></g><g transform="translate(559.8163958673488 144.00000000000003) rotate(0 0.18162124970882587 23.219501137733445)"><path d="M6.24 27.92 C6.95 34.79, 0.47 38.7, -1.57 45.96" stroke="#000000" stroke-width="1.5" fill="none"></path></g></g><mask></mask><g stroke-linecap="round"><g transform="translate(724.9970059366885 148.39453125) rotate(0 -0.6304473513513358 21.22349774837494)"><path d="M-1.18 -0.33 C-1.38 6.64, -0.24 35.77, -0.05 42.78" stroke="#000000" stroke-width="1.5" fill="none" stroke-dasharray="8 9"></path></g><g transform="translate(724.9970059366885 148.39453125) rotate(0 -0.6304473513513358 21.22349774837494)"><path d="M-8.54 21.37 C-4.35 29.26, -2.97 37.58, 1.07 40.79" stroke="#000000" stroke-width="1.5" fill="none"></path></g><g transform="translate(724.9970059366885 148.39453125) rotate(0 -0.6304473513513358 21.22349774837494)"><path d="M6.01 20.89 C4.44 28.83, 0.05 37.33, 1.07 40.79" stroke="#000000" stroke-width="1.5" fill="none"></path></g></g><mask></mask><g stroke-linecap="round"><g transform="translate(726.76953125 336.6484375) rotate(0 -0.2294708490371704 39.781396126747154)"><path d="M0.25 -0.57 C0 12.62, -0.55 66.9, -0.71 80.13" stroke="#000000" stroke-width="1.5" fill="none" stroke-dasharray="8 9"></path></g><g transform="translate(726.76953125 336.6484375) rotate(0 -0.2294708490371704 39.781396126747154)"><path d="M-11.6 52.53 C-5.51 62.93, -4.1 72.15, -0.33 80.98" stroke="#000000" stroke-width="1.5" fill="none"></path></g><g transform="translate(726.76953125 336.6484375) rotate(0 -0.2294708490371704 39.781396126747154)"><path d="M8.92 52.76 C7.45 63.11, 1.3 72.26, -0.33 80.98" stroke="#000000" stroke-width="1.5" fill="none"></path></g></g><mask></mask></svg>