<svg width="1849" height="218" viewBox="0 0 1849 218" fill="none" xmlns="http://www.w3.org/2000/svg">
<path d="M135.698 48.4478C61.0847 48.4478 0.591802 110.093 0.611333 186.113H35.1219C35.1219 129.142 79.795 82.9519 135.698 82.9519C191.601 82.9519 236.274 129.142 236.274 186.113H270.785C270.798 110.093 210.305 48.4478 135.698 48.4478Z" fill="#201D1D" style="fill:#201D1D;fill:color(display-p3 0.1255 0.1137 0.1137);fill-opacity:1;"/>
<path d="M129.922 186.011C129.922 177.754 126.642 169.836 120.804 163.998C114.966 158.159 107.047 154.879 98.7909 154.879C90.5343 154.879 82.6159 158.159 76.7776 163.998C70.9393 169.836 67.6594 177.754 67.6594 186.011L98.7909 186.011H129.922Z" fill="#201D1D" style="fill:#201D1D;fill:color(display-p3 0.1255 0.1137 0.1137);fill-opacity:1;"/>
<path d="M203.634 186.011C203.634 177.754 200.355 169.836 194.516 163.998C188.678 158.159 180.76 154.879 172.503 154.879C164.246 154.879 156.328 158.159 150.49 163.998C144.651 169.836 141.372 177.754 141.372 186.011L172.503 186.011H203.634Z" fill="#201D1D" style="fill:#201D1D;fill:color(display-p3 0.1255 0.1137 0.1137);fill-opacity:1;"/>
<path d="M778.023 161.372C759.844 161.372 743.696 148.2 739.535 130.014H847.465C847.465 130.014 848.045 123.425 848.045 121.094C848.045 82.4954 816.641 51.0918 778.049 51.0918C739.457 51.0918 708.054 82.4954 708.054 121.094C708.054 159.692 739.275 190.366 778.049 190.366C816.823 190.366 839.456 161.808 845.108 141.129H812.207C812.207 141.129 801.744 161.366 778.03 161.366L778.023 161.372ZM778.043 80.0797C795.467 80.0797 810.605 91.585 815.782 108.742H740.297C745.461 91.585 760.599 80.0797 778.036 80.0797H778.043Z" fill="#201D1D" style="fill:#201D1D;fill:color(display-p3 0.1255 0.1137 0.1137);fill-opacity:1;"/>
<path d="M366.183 190.366C327.584 190.366 297.313 159.289 297.313 121.094C297.313 82.8991 328.717 51.0918 367.309 51.0918C405.901 51.0918 437.304 83.7259 437.304 120.723C437.304 136.486 437.304 186.896 437.304 186.896H410.133V164.81L408.154 164.289C403.368 176.022 386.029 190.366 366.183 190.366ZM367.309 80.0732C345.509 80.0732 327.773 98.3761 327.773 120.872C327.773 143.369 345.509 161.366 367.309 161.366C389.109 161.366 406.845 143.199 406.845 120.872C406.845 98.5454 389.109 80.0732 367.309 80.0732Z" fill="#201D1D" style="fill:#201D1D;fill:color(display-p3 0.1255 0.1137 0.1137);fill-opacity:1;"/>
<path d="M514.85 190.366C476.252 190.366 445.981 159.289 445.981 121.094C445.981 82.8991 477.385 51.0918 515.977 51.0918C554.569 51.0918 585.972 83.7259 585.972 120.723C585.972 136.486 585.972 186.896 585.972 186.896H558.801V164.81L556.822 164.289C552.036 176.022 534.697 190.366 514.85 190.366ZM515.977 80.0732C494.177 80.0732 476.441 98.3761 476.441 120.872C476.441 143.369 494.177 161.366 515.977 161.366C537.776 161.366 555.513 143.199 555.513 120.872C555.513 98.5454 537.776 80.0732 515.977 80.0732Z" fill="#201D1D" style="fill:#201D1D;fill:color(display-p3 0.1255 0.1137 0.1137);fill-opacity:1;"/>
<path d="M631.592 186.896L575.817 54.5879H606.329L647.213 152.048L688.103 54.5879H718.608L662.84 186.896H631.592Z" fill="#201D1D" style="fill:#201D1D;fill:color(display-p3 0.1255 0.1137 0.1137);fill-opacity:1;"/>
<path d="M953.666 20.1694L883.762 209.515H858.993L928.897 20.1694H953.666Z" fill="#F24900" style="fill:#F24900;fill:color(display-p3 0.9490 0.2863 0.0000);fill-opacity:1;"/>
<path d="M1848.26 114.881C1847.65 77.3912 1825.06 51.9507 1787.04 51.9507C1761.12 51.9507 1748.61 71.0878 1745.66 77.7799L1743.85 77.3783V55.2676H1715.18V186.908H1745.52V119.76C1746.21 98.1608 1762.58 80.7988 1783.83 80.7988C1805.09 80.7988 1817.91 95.8999 1817.91 117.473V186.901H1848.26V114.869V114.881Z" fill="#F24900" style="fill:#F24900;fill:color(display-p3 0.9490 0.2863 0.0000);fill-opacity:1;"/>
<path d="M1197.26 51.9136C1158.79 51.9136 1127.61 82.9061 1127.61 121.141C1127.61 159.377 1158.79 190.369 1197.26 190.369C1235.72 190.369 1266.9 159.377 1266.9 121.141C1266.9 82.9061 1235.72 51.9136 1197.26 51.9136ZM1197.26 161.618C1175.59 161.618 1158.03 143.505 1158.03 121.161C1158.03 98.8169 1175.59 80.7034 1197.26 80.7034C1218.92 80.7034 1236.48 98.8169 1236.48 121.161C1236.48 143.505 1218.92 161.618 1197.26 161.618Z" fill="#F24900" style="fill:#F24900;fill:color(display-p3 0.9490 0.2863 0.0000);fill-opacity:1;"/>
<path d="M1632.17 51.9136C1593.71 51.9136 1562.53 82.9061 1562.53 121.141C1562.53 159.377 1593.71 190.369 1632.17 190.369C1670.63 190.369 1701.81 159.377 1701.81 121.141C1701.81 82.9061 1670.63 51.9136 1632.17 51.9136ZM1632.17 161.618C1610.51 161.618 1592.95 143.505 1592.95 121.161C1592.95 98.8169 1610.51 80.7034 1632.17 80.7034C1653.84 80.7034 1671.4 98.8169 1671.4 121.161C1671.4 143.505 1653.84 161.618 1632.17 161.618Z" fill="#F24900" style="fill:#F24900;fill:color(display-p3 0.9490 0.2863 0.0000);fill-opacity:1;"/>
<path d="M1116.25 114.772C1115.64 77.2815 1093.05 51.841 1055.02 51.841C1029.11 51.841 1016.59 70.978 1013.65 77.6702L1011.84 77.2685V13.7417H983.173V186.908H1013.51V119.65C1014.2 98.0511 1030.57 80.6891 1051.82 80.6891C1073.08 80.6891 1085.9 95.7902 1085.9 117.363V186.902H1116.25V114.765V114.772Z" fill="#F24900" style="fill:#F24900;fill:color(display-p3 0.9490 0.2863 0.0000);fill-opacity:1;"/>
<path d="M1478.48 161.487L1551.87 78.6938V55.2681H1438.04V80.6827H1511.15L1435.76 165.996V186.908H1555.54V161.487H1478.48Z" fill="#F24900" style="fill:#F24900;fill:color(display-p3 0.9490 0.2863 0.0000);fill-opacity:1;"/>
<path d="M1417.47 55.2676H1387.13V186.908H1417.47V55.2676Z" fill="#F24900" style="fill:#F24900;fill:color(display-p3 0.9490 0.2863 0.0000);fill-opacity:1;"/>
<path d="M1402.3 41.3126C1413.6 41.3126 1422.77 32.1501 1422.77 20.8475C1422.77 9.54488 1413.6 0.382324 1402.3 0.382324C1391 0.382324 1381.83 9.54488 1381.83 20.8475C1381.83 32.1501 1391 41.3126 1402.3 41.3126Z" fill="#F24900" style="fill:#F24900;fill:color(display-p3 0.9490 0.2863 0.0000);fill-opacity:1;"/>
<path d="M1372.47 55.3323C1364.53 52.8511 1358.9 51.8599 1351.12 51.8599C1325.21 51.8599 1312.69 71.0876 1309.75 77.7798L1307.93 77.3781V55.2675H1279.27V186.908H1309.61V128.745C1309.61 96.8197 1329.14 83.0661 1351.85 83.0661C1364.3 83.0661 1371.04 85.9879 1372.46 87.3807V55.3323H1372.47Z" fill="#F24900" style="fill:#F24900;fill:color(display-p3 0.9490 0.2863 0.0000);fill-opacity:1;"/>
</svg>
